<?xml version="1.0" ?><!DOCTYPE svg  PUBLIC '-//W3C//DTD SVG 1.1//EN'  'http://www.w3.org/Graphics/SVG/1.1/DTD/svg11.dtd'><svg height="512px" style="enable-background:new 0 0 512 512;" version="1.1" viewBox="0 0 512 512" width="512px" xml:space="preserve" xmlns="http://www.w3.org/2000/svg" xmlns:xlink="http://www.w3.org/1999/xlink"><g id="_x31_47-gmail"><g><g><path d="M442.871,82.934h-14.36h-0.015L256.003,219.52L83.498,82.934h-2.726H69.125     c-23.803,0-43.124,19.37-43.124,43.241v259.446c0,23.867,19.321,43.24,43.124,43.24h13.939h0.434V159.21l172.505,133.038     l172.493-133.07v254.388v15.295h14.375c23.806,0,43.128-19.373,43.128-43.24V126.175     C485.999,102.305,466.68,82.934,442.871,82.934z" style="fill:#F14336;"/></g><polygon points="428.496,82.934 83.498,82.934 256.003,219.52   " style="fill:#F2F2F2;"/><polygon points="256.003,292.248 83.498,159.21 83.498,428.861 83.064,428.861 83.064,429.066     428.397,429.066 428.397,413.566 428.496,413.566 428.496,159.178   " style="fill:#F2F2F2;"/></g></g><g id="Layer_1"/></svg>