<?xml version="1.0" ?><svg enable-background="new 0 0 196 200" id="twitch" version="1.1" viewBox="0 0 196 200" xml:space="preserve" xmlns="http://www.w3.org/2000/svg" xmlns:xlink="http://www.w3.org/1999/xlink"><g><path d="M32,140h44v24l24-24h46l26-26V20H32V140z M116,52c0-2.2108,1.7911-4,4-4h16c2.2087,0,4,1.7892,4,4v52   c0,2.2108-1.7913,4-4,4h-16c-2.2089,0-4-1.7892-4-4V52z M76,52c0-2.2108,1.7911-4,4-4h16c2.2087,0,4,1.7892,4,4v52   c0,2.2108-1.7913,4-4,4H80c-2.2089,0-4-1.7892-4-4V52z" fill="none"/><path d="M14,0L0,24v148h48v28h28l31.1111-28H146l50-46V0H14z M172,114l-26,26h-46l-24,24v-24H32V20h140V114z" fill="#9D57C4"/><path d="M80,108h16c2.2087,0,4-1.7892,4-4V52c0-2.2108-1.7913-4-4-4H80c-2.2089,0-4,1.7892-4,4v52   C76,106.2108,77.7911,108,80,108z" fill="#9D57C4"/><path d="M120,108h16c2.2087,0,4-1.7892,4-4V52c0-2.2108-1.7913-4-4-4h-16c-2.2089,0-4,1.7892-4,4v52   C116,106.2108,117.7911,108,120,108z" fill="#9D57C4"/></g></svg>